<?xml version="1.0" encoding="iso-8859-1"?>
<!-- Generator: Adobe Illustrator 19.0.0, SVG Export Plug-In . SVG Version: 6.00 Build 0)  -->
<svg version="1.1" id="Capa_1" xmlns="http://www.w3.org/2000/svg" xmlns:xlink="http://www.w3.org/1999/xlink" x="0px" y="0px"
	 viewBox="0 0 512 512" style="enable-background:new 0 0 512 512;" xml:space="preserve">
<g>
	<g>
		<circle cx="279.273" cy="349.091" r="11.636"/>
	</g>
</g>
<g>
	<g>
		<circle cx="81.455" cy="418.909" r="11.636"/>
	</g>
</g>
<g>
	<g>
		<path d="M477.091,46.545H81.455c-19.782,0-34.909,15.127-34.909,34.909v116.364c0,6.982,4.655,11.636,11.636,11.636
			s11.636-4.655,11.636-11.636V81.455c0-6.982,4.655-11.636,11.636-11.636h395.636c6.982,0,11.636,4.655,11.636,11.636v279.273
			c0,6.982-4.655,11.636-11.636,11.636H197.818c-6.982,0-11.636,4.655-11.636,11.636s4.655,11.636,11.636,11.636h23.273v34.909
			c0,6.982-4.655,11.636-11.636,11.636h-11.636c-6.982,0-11.636,4.655-11.636,11.636s4.655,11.636,11.636,11.636h162.909
			c6.982,0,11.636-4.655,11.636-11.636s-4.655-11.636-11.636-11.636h-11.636c-6.982,0-11.636-4.655-11.636-11.636v-34.909h139.636
			c19.782,0,34.909-15.127,34.909-34.909V81.455C512,61.673,496.873,46.545,477.091,46.545z M242.036,442.182
			c1.164-3.491,2.327-6.982,2.327-11.636v-34.909h69.818v34.909c0,4.655,1.164,8.145,2.327,11.636H242.036z"/>
	</g>
</g>
<g>
	<g>
		<path d="M453.818,302.545h-256c-6.982,0-11.636,4.655-11.636,11.636s4.655,11.636,11.636,11.636h256
			c6.982,0,11.636-4.655,11.636-11.636S460.8,302.545,453.818,302.545z"/>
	</g>
</g>
<g>
	<g>
		<path d="M128,232.727H34.909C15.127,232.727,0,247.855,0,267.636v162.909c0,19.782,15.127,34.909,34.909,34.909H128
			c19.782,0,34.909-15.127,34.909-34.909V267.636C162.909,247.855,147.782,232.727,128,232.727z M139.636,430.545
			c0,6.982-4.655,11.636-11.636,11.636H34.909c-6.982,0-11.636-4.655-11.636-11.636V267.636c0-6.982,4.655-11.636,11.636-11.636H128
			c6.982,0,11.636,4.655,11.636,11.636V430.545z"/>
	</g>
</g>
<g>
</g>
<g>
</g>
<g>
</g>
<g>
</g>
<g>
</g>
<g>
</g>
<g>
</g>
<g>
</g>
<g>
</g>
<g>
</g>
<g>
</g>
<g>
</g>
<g>
</g>
<g>
</g>
<g>
</g>
</svg>
