<?xml version='1.0' encoding='iso-8859-1'?>
<!DOCTYPE svg PUBLIC '-//W3C//DTD SVG 1.1//EN' 'http://www.w3.org/Graphics/SVG/1.1/DTD/svg11.dtd'>
<svg version="1.1" xmlns="http://www.w3.org/2000/svg" viewBox="0 0 467.211 467.211" xmlns:xlink="http://www.w3.org/1999/xlink" enable-background="new 0 0 467.211 467.211">
  <g>
    <path d="m413.917,96.775h-360.622c-6.369,0-11.551,5.181-11.551,11.55v213.182c0,6.369 5.182,11.55 11.551,11.55h360.622c6.368,0 11.55-5.181 11.55-11.55v-213.181c-5.68434e-14-6.369-5.182-11.551-11.55-11.551zm1.55,224.732c0,0.855-0.695,1.55-1.55,1.55h-360.622c-0.855,0-1.551-0.696-1.551-1.55v-213.181c0-0.855 0.695-1.55 1.551-1.55h360.622c0.854,0 1.55,0.696 1.55,1.55v213.181z"/>
    <path d="m459.711,340.558h-11.744v-237.715c0-15.752-12.815-28.568-28.568-28.568h-371.586c-15.753,0-28.568,12.815-28.568,28.568v237.714h-11.745c-4.143,0-7.5,3.358-7.5,7.5v20.605c0,13.384 10.889,24.272 24.272,24.272h418.666c13.384,0 24.272-10.889 24.272-24.272v-20.605c0.001-4.141-3.356-7.499-7.499-7.499zm-425.467-237.715c-2.84217e-14-7.481 6.087-13.568 13.568-13.568h371.586c7.481,0 13.568,6.086 13.568,13.568v237.714h-398.722v-237.714zm177.361,252.715h44v3.922c0,1.755-1.428,3.184-3.184,3.184h-37.633c-1.756,0-3.184-1.428-3.184-3.184v-3.922zm240.607,13.105c0,5.113-4.159,9.272-9.272,9.272h-418.667c-5.113,0-9.272-4.16-9.272-9.272v-13.105h11.744 174.861v3.922c0,7.27 5.914,13.184 13.184,13.184h37.633c7.27,0 13.184-5.914 13.184-13.184v-3.922h174.861 11.744v13.105z"/>
  </g>
</svg>
