<?xml version="1.0" encoding="iso-8859-1"?>
<!-- Generator: Adobe Illustrator 19.0.0, SVG Export Plug-In . SVG Version: 6.00 Build 0)  -->
<svg version="1.1" id="Layer_1" xmlns="http://www.w3.org/2000/svg" xmlns:xlink="http://www.w3.org/1999/xlink" x="0px" y="0px"
	 viewBox="0 0 512 512" style="enable-background:new 0 0 512 512;" xml:space="preserve">
<g>
	<g>
		<path d="M389.565,0h-267.13C94.817,0,72.348,22.469,72.348,50.087v411.826c0,27.618,22.469,50.087,50.087,50.087h267.13
			c27.618,0,50.087-22.469,50.087-50.087V50.087C439.652,22.469,417.183,0,389.565,0z M406.261,461.913
			c0,9.206-7.49,16.696-16.696,16.696h-267.13c-9.206,0-16.696-7.49-16.696-16.696V50.087c0-9.206,7.49-16.696,16.696-16.696h267.13
			c9.206,0,16.696,7.49,16.696,16.696V461.913z"/>
	</g>
</g>
<g>
	<g>
		<path d="M256,200.348c-64.442,0-116.87,52.428-116.87,116.87c0,64.442,52.428,116.87,116.87,116.87s116.87-52.428,116.87-116.87
			C372.87,252.775,320.442,200.348,256,200.348z M256,400.696c-46.03,0-83.478-37.448-83.478-83.478
			c0-46.03,37.448-83.478,83.478-83.478s83.478,37.448,83.478,83.478C339.478,363.247,302.03,400.696,256,400.696z"/>
	</g>
</g>
<g>
	<g>
		<path d="M256,267.13c-27.618,0-50.087,22.469-50.087,50.087s22.469,50.087,50.087,50.087c27.618,0,50.087-22.469,50.087-50.087
			S283.618,267.13,256,267.13z M256,333.913c-9.206,0-16.696-7.49-16.696-16.696c0-9.206,7.49-16.696,16.696-16.696
			s16.696,7.49,16.696,16.696C272.696,326.423,265.206,333.913,256,333.913z"/>
	</g>
</g>
<g>
	<g>
		<path d="M256,66.783c-27.618,0-50.087,22.469-50.087,50.087c0,27.618,22.469,50.087,50.087,50.087
			c27.618,0,50.087-22.469,50.087-50.087C306.087,89.252,283.618,66.783,256,66.783z M256,133.565
			c-9.206,0-16.696-7.49-16.696-16.696s7.49-16.696,16.696-16.696s16.696,7.49,16.696,16.696S265.206,133.565,256,133.565z"/>
	</g>
</g>
<g>
	<g>
		<circle cx="155.826" cy="83.478" r="16.696"/>
	</g>
</g>
<g>
	<g>
		<circle cx="356.174" cy="83.478" r="16.696"/>
	</g>
</g>
<g>
	<g>
		<circle cx="155.826" cy="428.522" r="16.696"/>
	</g>
</g>
<g>
	<g>
		<circle cx="356.174" cy="428.522" r="16.696"/>
	</g>
</g>
<g>
</g>
<g>
</g>
<g>
</g>
<g>
</g>
<g>
</g>
<g>
</g>
<g>
</g>
<g>
</g>
<g>
</g>
<g>
</g>
<g>
</g>
<g>
</g>
<g>
</g>
<g>
</g>
<g>
</g>
</svg>
